HIERARCHY
ROOT newVegas:Hips
{
	OFFSET 0.000000 96.479958 0.000000
	CHANNELS 6 Xposition Yposition Zposition Xrotation Yrotation Zrotation
	JOINT newVegas:Pelvis
	{
		OFFSET 0.000000 0.000000 0.000000
		CHANNELS 3 Xrotation Yrotation Zrotation
		JOINT newVegas:LeftUpLeg
		{
			OFFSET 18.735201 -5.666702 -4.541200
			CHANNELS 3 Xrotation Yrotation Zrotation
			JOINT newVegas:LeftLeg
			{
				OFFSET -0.021200 -31.938179 0.493100
				CHANNELS 3 Xrotation Yrotation Zrotation
				JOINT newVegas:LeftFoot
				{
					OFFSET 0.021200 -31.938179 -4.336299
					CHANNELS 3 Xrotation Yrotation Zrotation
					JOINT newVegas:LeftToeBase
					{
						OFFSET 0.943001 -26.722000 15.023500
						CHANNELS 3 Xrotation Yrotation Zrotation
						End Site
						{
							OFFSET 0.000000 30.670183 0.000000
						}
					}
				}
				JOINT newVegas:Left_PantLeg
				{
					OFFSET 0.663870 -9.044666 -1.108900
					CHANNELS 3 Xrotation Yrotation Zrotation
					End Site
					{
						OFFSET 1.415995 20.635357 0.000000
					}
				}
			}
		}
		JOINT newVegas:RightUpLeg
		{
			OFFSET -18.735201 -5.666702 -4.541200
			CHANNELS 3 Xrotation Yrotation Zrotation
			JOINT newVegas:RightLeg
			{
				OFFSET 0.018946 -31.938133 0.493100
				CHANNELS 3 Xrotation Yrotation Zrotation
				JOINT newVegas:RightFoot
				{
					OFFSET -0.018946 -31.938126 -4.336299
					CHANNELS 3 Xrotation Yrotation Zrotation
					JOINT newVegas:RightToeBase
					{
						OFFSET -0.943001 -26.722004 15.023500
						CHANNELS 3 Xrotation Yrotation Zrotation
						End Site
						{
							OFFSET 0.000000 30.670187 0.000000
						}
					}
				}
				JOINT newVegas:Right_PantLeg
				{
					OFFSET -0.661674 -9.044716 -1.108900
					CHANNELS 3 Xrotation Yrotation Zrotation
					End Site
					{
						OFFSET -1.415958 20.635269 0.000000
					}
				}
			}
		}
	}
	JOINT newVegas:Spine
	{
		OFFSET 0.000000 10.199997 -0.299500
		CHANNELS 3 Xrotation Yrotation Zrotation
		JOINT newVegas:Spine1
		{
			OFFSET 0.000000 11.900002 -1.516600
			CHANNELS 3 Xrotation Yrotation Zrotation
			JOINT newVegas:Spine2
			{
				OFFSET 0.000000 13.600006 -2.842500
				CHANNELS 3 Xrotation Yrotation Zrotation
				JOINT newVegas:Neck
				{
					OFFSET 0.000000 9.624100 -2.890100
					CHANNELS 3 Xrotation Yrotation Zrotation
					JOINT newVegas:Head
					{
						OFFSET 0.000000 14.068802 -1.351900
						CHANNELS 3 Xrotation Yrotation Zrotation
						JOINT newVegas:Hair_Back
						{
							OFFSET 0.000000 3.231903 -17.524799
							CHANNELS 3 Xrotation Yrotation Zrotation
							End Site
							{
								OFFSET 0.000000 19.849884 0.000000
							}
						}
						JOINT newVegas:Hair_Front
						{
							OFFSET 0.000000 31.260406 4.573800
							CHANNELS 3 Xrotation Yrotation Zrotation
							JOINT newVegas:Hair_Front1
							{
								OFFSET 0.000000 2.284103 11.993300
								CHANNELS 3 Xrotation Yrotation Zrotation
								JOINT newVegas:Hair_Front2
								{
									OFFSET 0.000000 2.284103 11.993300
									CHANNELS 3 Xrotation Yrotation Zrotation
									End Site
									{
										OFFSET 0.000000 12.208862 0.000000
									}
								}
							}
						}
						JOINT newVegas:Jowel
						{
							OFFSET 0.000000 -7.458206 6.864100
							CHANNELS 3 Xrotation Yrotation Zrotation
							End Site
							{
								OFFSET 0.000000 19.849884 0.000000
							}
						}
					}
				}
				JOINT newVegas:LeftShoulder
				{
					OFFSET 15.263000 10.923401 -0.547700
					CHANNELS 3 Xrotation Yrotation Zrotation
					JOINT newVegas:LeftArm
					{
						OFFSET 25.438599 -2.830597 -13.032500
						CHANNELS 3 Xrotation Yrotation Zrotation
						JOINT newVegas:LeftForeArm
						{
							OFFSET 29.960503 0.000000 0.000000
							CHANNELS 3 Xrotation Yrotation Zrotation
							JOINT newVegas:LeftHand
							{
								OFFSET 27.849251 0.000000 0.000000
								CHANNELS 3 Xrotation Yrotation Zrotation
								JOINT newVegas:LeftHandThumb1
								{
									OFFSET 4.487587 -3.305161 6.305391
									CHANNELS 3 Xrotation Yrotation Zrotation
									JOINT newVegas:LeftHandThumb2
									{
										OFFSET 5.480453 -3.164139 3.164143
										CHANNELS 3 Xrotation Yrotation Zrotation
										JOINT newVegas:LeftHandThumb3
										{
											OFFSET 5.159721 -2.978973 2.978967
											CHANNELS 3 Xrotation Yrotation Zrotation
											End Site
											{
												OFFSET 2.494507 5.926697 1.738678
											}
										}
									}
								}
								JOINT newVegas:LeftHandIndex1
								{
									OFFSET 18.578728 -0.527832 5.208049
									CHANNELS 3 Xrotation Yrotation Zrotation
									JOINT newVegas:LeftHandIndex2
									{
										OFFSET 3.192009 0.000000 0.000000
										CHANNELS 3 Xrotation Yrotation Zrotation
										JOINT newVegas:LeftHandIndex3
										{
											OFFSET 3.835129 0.000000 0.000000
											CHANNELS 3 Xrotation Yrotation Zrotation
											End Site
											{
												OFFSET -0.034599 3.816971 0.371180
											}
										}
									}
								}
								JOINT newVegas:LeftHandMiddle1
								{
									OFFSET 18.476105 0.000000 0.000000
									CHANNELS 3 Xrotation Yrotation Zrotation
									JOINT newVegas:LeftHandMiddle2
									{
										OFFSET 3.324875 0.000000 0.000000
										CHANNELS 3 Xrotation Yrotation Zrotation
										JOINT newVegas:LeftHandMiddle3
										{
											OFFSET 4.596550 0.000000 0.000000
											CHANNELS 3 Xrotation Yrotation Zrotation
											End Site
											{
												OFFSET 0.057701 4.578827 0.399218
											}
										}
									}
								}
								JOINT newVegas:LeftHandRing1
								{
									OFFSET 17.732719 0.121887 -4.201567
									CHANNELS 3 Xrotation Yrotation Zrotation
									JOINT newVegas:LeftHandRing2
									{
										OFFSET 2.733170 0.000000 0.000000
										CHANNELS 3 Xrotation Yrotation Zrotation
										JOINT newVegas:LeftHandRing3
										{
											OFFSET 3.178268 0.000000 0.000000
											CHANNELS 3 Xrotation Yrotation Zrotation
											End Site
											{
												OFFSET 0.119102 3.170624 0.185394
											}
										}
									}
								}
								JOINT newVegas:LeftHandPinky1
								{
									OFFSET 15.989624 -0.606689 -7.535461
									CHANNELS 3 Xrotation Yrotation Zrotation
									JOINT newVegas:LeftHandPinky2
									{
										OFFSET 2.538986 0.000000 0.000000
										CHANNELS 3 Xrotation Yrotation Zrotation
										JOINT newVegas:LeftHandPinky3
										{
											OFFSET 2.593102 0.000000 0.000000
											CHANNELS 3 Xrotation Yrotation Zrotation
											End Site
											{
												OFFSET -0.150902 2.584198 0.152708
											}
										}
									}
								}
							}
							JOINT newVegas:Left_Sleeve
							{
								OFFSET 0.267448 -0.649796 0.577675
								CHANNELS 3 Xrotation Yrotation Zrotation
								End Site
								{
									OFFSET 0.000000 15.991241 0.000000
								}
							}
							JOINT newVegas:Left_CapeC
							{
								OFFSET 15.715958 -8.608795 -6.935905
								CHANNELS 3 Xrotation Yrotation Zrotation
								JOINT newVegas:Left_CapeC1
								{
									OFFSET 0.000000 -8.688499 0.000000
									CHANNELS 3 Xrotation Yrotation Zrotation
									End Site
									{
										OFFSET 0.000000 8.688499 0.000000
									}
								}
							}
						}
						JOINT newVegas:Left_CapeB
						{
							OFFSET 26.118385 -8.608795 -7.079235
							CHANNELS 3 Xrotation Yrotation Zrotation
							JOINT newVegas:Left_CapeB1
							{
								OFFSET 0.000000 -8.688499 0.000000
								CHANNELS 3 Xrotation Yrotation Zrotation
								End Site
								{
									OFFSET 0.000000 8.688499 0.000000
								}
							}
						}
						JOINT newVegas:Left_CapeA
						{
							OFFSET 5.115639 -8.608795 -10.395809
							CHANNELS 3 Xrotation Yrotation Zrotation
							JOINT newVegas:Left_CapeA1
							{
								OFFSET 0.000000 -8.688499 0.000000
								CHANNELS 3 Xrotation Yrotation Zrotation
								End Site
								{
									OFFSET 0.000000 8.688499 0.000000
								}
							}
						}
					}
				}
				JOINT newVegas:RightShoulder
				{
					OFFSET -15.263000 10.923401 -0.547700
					CHANNELS 3 Xrotation Yrotation Zrotation
					JOINT newVegas:RightArm
					{
						OFFSET -25.438599 -2.830597 -13.032500
						CHANNELS 3 Xrotation Yrotation Zrotation
						JOINT newVegas:RightForeArm
						{
							OFFSET -29.960503 0.000000 0.000000
							CHANNELS 3 Xrotation Yrotation Zrotation
							JOINT newVegas:RightHand
							{
								OFFSET -27.849251 0.000000 0.000000
								CHANNELS 3 Xrotation Yrotation Zrotation
								JOINT newVegas:RightHandThumb1
								{
									OFFSET -4.487587 -3.305161 6.305391
									CHANNELS 3 Xrotation Yrotation Zrotation
									JOINT newVegas:RightHandThumb2
									{
										OFFSET -5.480453 -3.164139 3.164143
										CHANNELS 3 Xrotation Yrotation Zrotation
										JOINT newVegas:RightHandThumb3
										{
											OFFSET -5.159721 -2.978973 2.978967
											CHANNELS 3 Xrotation Yrotation Zrotation
											End Site
											{
												OFFSET -2.494507 5.926697 1.738678
											}
										}
									}
								}
								JOINT newVegas:RightHandIndex1
								{
									OFFSET -18.578728 -0.527832 5.208049
									CHANNELS 3 Xrotation Yrotation Zrotation
									JOINT newVegas:RightHandIndex2
									{
										OFFSET -3.192009 0.000000 0.000000
										CHANNELS 3 Xrotation Yrotation Zrotation
										JOINT newVegas:RightHandIndex3
										{
											OFFSET -3.835129 0.000000 0.000000
											CHANNELS 3 Xrotation Yrotation Zrotation
											End Site
											{
												OFFSET 0.034599 3.816971 0.371180
											}
										}
									}
								}
								JOINT newVegas:RightHandMiddle1
								{
									OFFSET -18.476105 0.000000 0.000000
									CHANNELS 3 Xrotation Yrotation Zrotation
									JOINT newVegas:RightHandMiddle2
									{
										OFFSET -3.324875 0.000000 0.000000
										CHANNELS 3 Xrotation Yrotation Zrotation
										JOINT newVegas:RightHandMiddle3
										{
											OFFSET -4.596550 0.000000 0.000000
											CHANNELS 3 Xrotation Yrotation Zrotation
											End Site
											{
												OFFSET -0.057701 4.578827 0.399218
											}
										}
									}
								}
								JOINT newVegas:RightHandRing1
								{
									OFFSET -17.732719 0.121887 -4.201567
									CHANNELS 3 Xrotation Yrotation Zrotation
									JOINT newVegas:RightHandRing2
									{
										OFFSET -2.733170 0.000000 0.000000
										CHANNELS 3 Xrotation Yrotation Zrotation
										JOINT newVegas:RightHandRing3
										{
											OFFSET -3.178268 0.000000 0.000000
											CHANNELS 3 Xrotation Yrotation Zrotation
											End Site
											{
												OFFSET -0.119102 3.170624 0.185394
											}
										}
									}
								}
								JOINT newVegas:RightHandPinky1
								{
									OFFSET -15.989624 -0.606689 -7.535461
									CHANNELS 3 Xrotation Yrotation Zrotation
									JOINT newVegas:RightHandPinky2
									{
										OFFSET -2.538986 0.000000 0.000000
										CHANNELS 3 Xrotation Yrotation Zrotation
										JOINT newVegas:RightHandPinky3
										{
											OFFSET -2.593102 0.000000 0.000000
											CHANNELS 3 Xrotation Yrotation Zrotation
											End Site
											{
												OFFSET 0.150902 2.584198 0.152708
											}
										}
									}
								}
							}
							JOINT newVegas:Right_CapeC
							{
								OFFSET -15.715958 -8.608795 -6.935905
								CHANNELS 3 Xrotation Yrotation Zrotation
								JOINT newVegas:Right_CapeC1
								{
									OFFSET 0.000000 -8.688499 0.000000
									CHANNELS 3 Xrotation Yrotation Zrotation
									End Site
									{
										OFFSET 0.000000 8.688499 0.000000
									}
								}
							}
							JOINT newVegas:Right_Sleeve
							{
								OFFSET -0.267448 -0.649994 0.577675
								CHANNELS 3 Xrotation Yrotation Zrotation
								End Site
								{
									OFFSET 0.000000 15.991302 0.000000
								}
							}
						}
						JOINT newVegas:Right_CapeA
						{
							OFFSET -5.115540 -8.608795 -10.395824
							CHANNELS 3 Xrotation Yrotation Zrotation
							JOINT newVegas:Right_CapeA1
							{
								OFFSET 0.000000 -8.688499 0.000000
								CHANNELS 3 Xrotation Yrotation Zrotation
								End Site
								{
									OFFSET 0.000000 8.688499 0.000000
								}
							}
						}
						JOINT newVegas:Right_CapeB
						{
							OFFSET -26.118187 -8.608795 -7.079266
							CHANNELS 3 Xrotation Yrotation Zrotation
							JOINT newVegas:Right_CapeB1
							{
								OFFSET 0.000000 -8.688499 0.000000
								CHANNELS 3 Xrotation Yrotation Zrotation
								End Site
								{
									OFFSET 0.000000 8.688499 0.000000
								}
							}
						}
					}
				}
				JOINT newVegas:Left_Collar
				{
					OFFSET 18.625099 8.655502 8.828100
					CHANNELS 3 Xrotation Yrotation Zrotation
					JOINT newVegas:Left_Collar1
					{
						OFFSET 14.783401 10.540405 -1.259500
						CHANNELS 3 Xrotation Yrotation Zrotation
						End Site
						{
							OFFSET 0.000000 18.199875 0.000000
						}
					}
				}
				JOINT newVegas:Collar_Back
				{
					OFFSET 0.000000 15.630707 -20.132601
					CHANNELS 3 Xrotation Yrotation Zrotation
					End Site
					{
						OFFSET 0.000000 22.523010 0.000000
					}
				}
				JOINT newVegas:Left_Peck
				{
					OFFSET 17.239599 -5.132599 25.482599
					CHANNELS 3 Xrotation Yrotation Zrotation
					End Site
					{
						OFFSET 0.000000 22.523010 0.000000
					}
				}
				JOINT newVegas:Right_Peck
				{
					OFFSET -17.239599 -5.132202 25.482599
					CHANNELS 3 Xrotation Yrotation Zrotation
					End Site
					{
						OFFSET 0.000000 22.523010 0.000000
					}
				}
				JOINT newVegas:Right_Collar
				{
					OFFSET -18.625099 8.655792 8.828100
					CHANNELS 3 Xrotation Yrotation Zrotation
					JOINT newVegas:Right_Collar1
					{
						OFFSET -14.783401 10.539993 -1.259500
						CHANNELS 3 Xrotation Yrotation Zrotation
						End Site
						{
							OFFSET 0.000000 18.199631 0.000000
						}
					}
				}
			}
		}
		JOINT newVegas:Belly
		{
			OFFSET 0.000000 -6.540398 9.014299
			CHANNELS 3 Xrotation Yrotation Zrotation
			End Site
			{
				OFFSET 0.000000 11.566666 0.000000
			}
		}
	}
	JOINT newVegas:ElvisFacialAnim_Joint
	{
		OFFSET 1.000000 -95.330101 -8.825800
		CHANNELS 3 Xrotation Yrotation Zrotation
		End Site
		{
			OFFSET 0.000000 35.315800 0.000000
		}
	}
}
MOTION
Frames: 4
Frame Time: 0.033333
-1.842723 68.922852 55.968319 -7.647333 -50.336630 -8.412053 -0.000000 -0.000002 -0.000000 -63.830966 -11.323310 28.945010 90.218364 -8.918726 5.070128 -20.153749 -8.263572 -20.213532 0.000000 -0.000000 0.000000 -0.000000 -0.000000 0.000002 -22.104082 -3.104339 -46.791013 65.637961 5.922527 -10.310525 -18.480475 -5.335699 23.241085 0.000000 0.000000 -0.000000 0.000001 0.000002 0.000001 16.218549 6.441138 -5.720058 8.573178 0.996426 -4.284426 8.682676 0.893369 -4.103407 0.572999 3.349715 0.601815 0.573008 3.349706 0.601812 0.000003 -0.000002 -0.000000 0.573007 3.349702 0.601824 0.572964 3.349745 0.601817 -0.000000 0.000002 -0.000000 0.000003 -0.000002 -0.000001 0.617083 1.457170 -4.214171 -42.515353 1.065420 -48.381344 0.000062 -117.456318 0.000059 -0.726467 -5.028801 -23.599321 -6.141210 -11.690793 -6.761696 9.914108 42.595529 3.409869 0.000001 0.000001 -0.000001 0.255321 3.378228 -45.814358 5.654099 5.847756 -88.067455 0.000001 0.000003 0.000001 -0.461466 3.841590 -39.722683 6.450732 5.820335 -95.892844 -0.000001 0.000001 0.000000 0.469737 4.966811 -39.799464 8.181033 5.368601 -113.503004 0.000003 -0.000002 -0.000002 -3.762416 9.063725 -45.253838 5.342520 5.828975 -85.005311 0.000000 0.000000 0.000000 -0.000001 0.000004 0.000003 -0.000001 0.000004 0.000003 -0.000002 0.000004 0.000003 -0.000002 -0.000001 -0.000000 -0.000002 -0.000002 -0.000001 -0.000002 -0.000001 -0.000000 -0.000003 0.000000 -0.000001 2.203933 10.242202 -5.748361 -34.053605 18.368605 73.773850 -0.000028 121.453754 0.000026 -6.796900 19.646136 4.602560 -7.341098 13.749657 7.412311 9.855742 -44.489103 -3.903267 -0.000000 -0.000005 -0.000001 -0.124367 -2.384788 45.108871 4.500592 -4.654545 88.071157 -0.000004 0.000003 -0.000002 -0.761614 -2.932890 39.031065 5.133868 -4.632747 95.881649 -0.000002 0.000000 -0.000001 0.154771 -4.068797 39.122658 6.509709 -4.273577 113.462836 -0.000001 -0.000003 -0.000001 -4.198864 -8.025529 44.637769 4.252886 -4.639599 85.014818 0.000002 -0.000000 -0.000002 0.000000 0.000000 -0.000001 0.000000 -0.000001 0.000000 0.000000 0.000000 -0.000001 0.000000 0.000000 -0.000000 0.000000 0.000000 -0.000000 0.000000 0.000000 -0.000000 0.000000 -0.000001 -0.000001 -0.000002 0.000000 -0.000000 -0.000002 0.000000 -0.000000 -0.000002 0.000000 -0.000000 -0.000002 0.000000 -0.000000 -0.000002 0.000000 -0.000000 -0.000002 0.000000 -0.000000 -0.000002 0.000000 -0.000000 0.000001 -0.000001 0.000001 -0.000000 -0.000002 -0.000000 
-1.955600 69.018784 54.074913 -9.730181 -50.804620 -8.879905 -0.000000 0.000002 0.000000 -61.871159 -10.436717 29.301915 87.368925 -9.211910 5.390381 -17.974420 -7.862119 -21.247388 0.000000 0.000001 -0.000000 -0.000002 0.000002 0.000000 -22.946304 -2.204433 -47.794805 68.096904 4.865145 -10.211506 -20.980217 -5.646930 23.379553 -0.000000 0.000001 -0.000001 -0.000001 0.000004 0.000005 15.592014 6.445116 -5.076321 7.944788 0.917802 -3.896608 8.036295 0.841772 -3.739806 0.449818 3.406620 0.666155 0.449789 3.406619 0.666161 0.000002 -0.000002 0.000001 0.449884 3.406637 0.666146 0.449808 3.406615 0.666160 -0.000002 -0.000001 -0.000000 0.000002 -0.000002 0.000000 0.413633 2.369478 -4.437523 -39.660989 0.181736 -49.210195 0.000002 -116.758614 0.000000 -0.289743 -6.209673 -23.141975 -6.141214 -11.690797 -6.761690 9.914105 42.595522 3.409859 0.000000 0.000000 -0.000004 0.255321 3.378227 -45.814354 5.654089 5.847754 -88.067455 0.000000 0.000002 0.000001 -0.461468 3.841590 -39.722690 6.450736 5.820337 -95.892844 0.000001 0.000002 -0.000000 0.469736 4.966812 -39.799461 8.181037 5.368601 -113.503004 0.000002 0.000001 0.000001 -3.762419 9.063721 -45.253838 5.342517 5.828975 -85.005311 0.000000 0.000000 0.000000 -0.000001 0.000004 -0.000002 -0.000001 0.000004 -0.000002 -0.000001 0.000005 -0.000002 0.000001 0.000001 -0.000000 0.000001 0.000000 0.000001 0.000001 0.000001 -0.000000 -0.000000 0.000002 -0.000001 2.328013 10.210496 -5.396123 -34.415339 19.786085 74.328639 0.000029 120.220045 -0.000025 -6.005460 19.428663 5.340505 -7.341098 13.749657 7.412317 9.855743 -44.489103 -3.903266 0.000001 -0.000002 -0.000001 -0.124366 -2.384788 45.108871 4.500586 -4.654544 88.071157 0.000002 -0.000001 -0.000001 -0.761614 -2.932895 39.031068 5.133865 -4.632750 95.881649 0.000001 0.000000 -0.000000 0.154770 -4.068796 39.122658 6.509714 -4.273582 113.462843 0.000002 0.000001 -0.000002 -4.198866 -8.025525 44.637762 4.252888 -4.639601 85.014818 0.000002 0.000003 -0.000000 0.000000 -0.000001 0.000000 0.000000 -0.000001 0.000000 0.000000 -0.000001 -0.000000 0.000001 -0.000001 -0.000001 0.000001 -0.000001 -0.000001 0.000001 -0.000001 -0.000001 0.000001 -0.000001 -0.000001 -0.000000 0.000000 0.000001 -0.000000 0.000000 0.000001 -0.000000 0.000000 0.000001 -0.000000 0.000000 0.000001 -0.000000 0.000000 0.000001 -0.000000 0.000000 0.000001 -0.000000 0.000000 0.000001 -0.000000 -0.000002 0.000000 -0.000000 0.000002 0.000000 
-2.158162 69.365387 51.726933 -10.687540 -50.974330 -8.707314 -0.000000 0.000000 0.000000 -60.175579 -9.878608 29.930982 82.913087 -9.816778 5.763787 -14.968027 -7.968561 -23.365941 -0.000000 0.000001 0.000000 -0.000000 -0.000002 0.000001 -22.975213 -2.421053 -47.904259 68.440545 2.023636 -9.930777 -24.216543 -6.224186 24.587887 0.000000 -0.000000 -0.000000 -0.000004 -0.000002 -0.000003 14.733866 6.535175 -4.313081 7.182026 0.935404 -3.505154 7.255111 0.891065 -3.373774 0.366530 3.486423 0.598335 0.366538 3.486423 0.598335 -0.000002 -0.000000 -0.000000 0.366681 3.486415 0.598329 0.366463 3.486410 0.598344 -0.000000 0.000000 -0.000001 -0.000002 -0.000000 0.000000 0.259914 3.531101 -5.136253 -35.074036 -0.317749 -50.415399 -0.000029 -116.878894 -0.000032 0.086123 -7.275809 -22.520283 -6.141212 -11.690797 -6.761694 9.914107 42.595525 3.409862 -0.000000 -0.000000 -0.000006 0.255322 3.378225 -45.814358 5.654093 5.847754 -88.067455 -0.000000 0.000001 0.000000 -0.461465 3.841588 -39.722686 6.450737 5.820338 -95.892844 -0.000000 -0.000001 -0.000000 0.469734 4.966809 -39.799454 8.181031 5.368597 -113.502998 0.000002 -0.000001 0.000003 -3.762413 9.063721 -45.253838 5.342521 5.828981 -85.005311 -0.000000 -0.000002 0.000001 -0.000002 -0.000000 0.000003 -0.000002 -0.000000 0.000003 -0.000003 0.000000 0.000003 -0.000002 0.000000 -0.000001 -0.000002 -0.000001 0.000000 -0.000002 0.000000 -0.000001 -0.000002 0.000001 -0.000001 2.638676 10.774378 -4.932355 -34.109538 21.406954 74.465263 0.000061 119.309580 -0.000058 -5.083073 18.800902 5.758273 -7.341094 13.749654 7.412311 9.855738 -44.489096 -3.903262 -0.000003 -0.000003 0.000001 -0.124362 -2.384786 45.108864 4.500592 -4.654543 88.071157 0.000002 -0.000000 -0.000003 -0.761611 -2.932892 39.031065 5.133869 -4.632744 95.881649 -0.000000 0.000003 -0.000001 0.154772 -4.068798 39.122658 6.509709 -4.273578 113.462843 -0.000001 -0.000001 0.000001 -4.198863 -8.025530 44.637766 4.252886 -4.639601 85.014811 -0.000003 0.000005 -0.000001 -0.000001 -0.000001 0.000000 0.000000 -0.000001 0.000000 -0.000001 -0.000001 0.000000 0.000000 0.000001 -0.000001 0.000000 0.000001 -0.000001 0.000000 0.000001 -0.000001 0.000000 0.000001 -0.000001 0.000001 0.000003 -0.000000 0.000001 0.000003 -0.000000 0.000001 0.000003 -0.000000 0.000001 0.000003 -0.000000 0.000001 0.000003 -0.000000 0.000001 0.000003 -0.000000 0.000001 0.000003 -0.000000 -0.000000 0.000004 -0.000000 -0.000000 0.000000 0.000000 
-2.503189 69.869263 48.618561 -10.542879 -50.703315 -7.733598 -0.000000 -0.000001 0.000000 -58.693871 -9.401980 30.510779 77.592110 -10.220375 6.089853 -13.882093 -8.846513 -25.292645 -0.000000 0.000001 0.000000 -0.000002 0.000002 0.000000 -21.658286 -2.858629 -48.810960 65.890773 1.817120 -9.181271 -24.877313 -7.937897 30.575509 0.000000 0.000000 -0.000001 -0.000000 -0.000001 0.000000 13.777651 6.650122 -3.707409 6.360547 1.028561 -3.131368 6.416404 1.012503 -3.022995 0.361593 3.567722 0.423306 0.361598 3.567706 0.423309 -0.000000 0.000001 -0.000000 0.361664 3.567705 0.423301 0.361603 3.567730 0.423304 -0.000002 -0.000000 0.000001 -0.000000 0.000001 -0.000000 0.188635 4.762967 -6.229773 -29.852124 -0.627131 -51.847522 0.000129 -117.480401 0.000137 0.164563 -8.074326 -21.682717 -6.141210 -11.690796 -6.761695 9.914105 42.595529 3.409861 -0.000001 -0.000000 -0.000003 0.255321 3.378227 -45.814354 5.654093 5.847756 -88.067455 -0.000000 0.000001 0.000000 -0.461468 3.841590 -39.722679 6.450737 5.820337 -95.892844 0.000000 -0.000001 -0.000001 0.469736 4.966809 -39.799461 8.181033 5.368600 -113.503004 0.000001 -0.000001 -0.000002 -3.762417 9.063723 -45.253838 5.342522 5.828974 -85.005311 -0.000000 -0.000003 0.000000 0.000000 -0.000004 0.000003 0.000000 -0.000004 0.000003 -0.000000 -0.000004 0.000003 -0.000003 0.000001 0.000002 -0.000003 0.000001 0.000003 -0.000003 0.000001 0.000002 -0.000003 0.000002 0.000001 3.077091 11.833096 -4.488525 -33.936444 22.935707 73.798295 -0.000004 118.732061 -0.000008 -4.437059 17.485300 5.776986 -7.341092 13.749654 7.412313 9.855737 -44.489100 -3.903263 0.000000 -0.000002 -0.000001 -0.124363 -2.384786 45.108871 4.500591 -4.654544 88.071157 -0.000003 -0.000001 0.000002 -0.761613 -2.932887 39.031065 5.133862 -4.632746 95.881656 0.000002 -0.000001 -0.000001 0.154771 -4.068792 39.122664 6.509712 -4.273581 113.462843 -0.000001 -0.000004 -0.000001 -4.198865 -8.025520 44.637766 4.252889 -4.639600 85.014818 0.000002 0.000000 -0.000003 0.000000 0.000000 0.000001 0.000000 -0.000002 0.000001 0.000000 -0.000000 0.000000 0.000000 0.000000 0.000001 0.000000 0.000000 0.000001 0.000000 0.000000 0.000001 0.000000 -0.000001 0.000001 0.000002 -0.000003 0.000001 0.000002 -0.000003 0.000001 0.000002 -0.000003 0.000001 0.000002 -0.000003 0.000001 0.000002 -0.000003 0.000001 0.000002 -0.000003 0.000001 0.000002 -0.000003 0.000001 -0.000000 -0.000001 0.000000 -0.000000 -0.000001 0.000000 
